# xmcd
#
# Track frame offsets: 
#        150
#        11969
#        25132
#        37268
#        50288
#        61325
#        75113
#        87054
#        99686
#        111828
#        124168
#        135832
#        147656
#        162148
#        175215
#        188653
#        200084
#        214576
#        226750
#        238170
#        252765
#        269824
#        282345
#
# Disc length: 3958 seconds
#
# Revision: 0
# Processed by: cddbd v1.5.2PL0 Copyright (c) Steve Scherf et al.
# Submitted via: ExactAudioCopy v1.0b3
#
DISCID=450f7417
DTITLE=The Louvin Brothers - Complete Recorded Works 1952-62 CD1
DYEAR=2014
DGENRE=Country
TTITLE0=The Get Acquainted Waltz
TTITLE1=Weapon Of Prayer
TTITLE2=They've Got The Church Outnumbered
TTITLE3=Do You Live What You Preach
TTITLE4=You'll Be Rewarded Over There
TTITLE5=I'll Live With God (To Die No More)
TTITLE6=Robe Of White
TTITLE7=The Great Atomic Power
TTITLE8=Insured Beyond The Grave
TTITLE9=The Gospel Way
TTITLE10=The Sons And Daughters Of God
TTITLE11=Kentucky
TTITLE12=I'll Be All Smiles Tonight
TTITLE13=Let Her Go, God Bless Her
TTITLE14=What Is Home Without Love
TTITLE15=A Tiny Broken Heart
TTITLE16=In the Pines
TTITLE17=Alabama
TTITLE18=Katie Dear
TTITLE19=My Brother's Will
TTITLE20=Knoxville Girl
TTITLE21=Take The News To Mother
TTITLE22=Mary Of The Wild Moor 
EXTD=
EXTT0=
EXTT1=
EXTT2=
EXTT3=
EXTT4=
EXTT5=
EXTT6=
EXTT7=
EXTT8=
EXTT9=
EXTT10=
EXTT11=
EXTT12=
EXTT13=
EXTT14=
EXTT15=
EXTT16=
EXTT17=
EXTT18=
EXTT19=
EXTT20=
EXTT21=
EXTT22=
PLAYORDER=
